<svg xmlns="http://www.w3.org/2000/svg" xmlns:xlink="http://www.w3.org/1999/xlink" xmlns:lucid="lucid" width="1100.33" height="1008"><g transform="translate(-21 0)" lucid:page-tab-id="4wVkPmen_ybb"><path d="M741.33 172h340v168h-340z" fill="#fff"/><path d="M741.33 172h340v40h-340z" fill="#ccc"/><path d="M741.33 172h340v168h-340zM741.33 212h340M801.33 212v128M948 212v128" stroke="#000" stroke-width="2" fill="none"/><use xlink:href="#a" transform="matrix(1,0,0,1,751.3333333333333,172) translate(101.525 23.6)"/><use xlink:href="#b" transform="matrix(1,0,0,1,746.3333333333333,214.5) translate(12.524999999999999 17.1)"/><use xlink:href="#c" transform="matrix(1,0,0,1,806.3333333333333,214.5) translate(0 17.1)"/><use xlink:href="#d" transform="matrix(1,0,0,1,953,214.5) translate(0 17.1)"/><use xlink:href="#e" transform="matrix(1,0,0,1,806.3333333333333,246.5) translate(0 17.1)"/><use xlink:href="#f" transform="matrix(1,0,0,1,953,246.5) translate(0 17.1)"/><use xlink:href="#g" transform="matrix(1,0,0,1,806.3333333333333,278.5) translate(0 17.1)"/><use xlink:href="#f" transform="matrix(1,0,0,1,953,278.5) translate(0 17.1)"/><use xlink:href="#h" transform="matrix(1,0,0,1,806.3333333333333,310.5) translate(0 17.1)"/><use xlink:href="#i" transform="matrix(1,0,0,1,953,310.5) translate(0 17.1)"/><path d="M87 140h390v360H87z" fill="#fff"/><path d="M87 140h390v40H87z" fill="#ccc"/><path d="M87 140h390v360H87zM87 180h390M147 180v320M369 180v320" stroke="#000" stroke-width="2" fill="none"/><use xlink:href="#j" transform="matrix(1,0,0,1,97,140) translate(80.12500000000001 23.6)"/><use xlink:href="#b" transform="matrix(1,0,0,1,92,182.5) translate(12.524999999999999 17.1)"/><use xlink:href="#k" transform="matrix(1,0,0,1,152,182.5) translate(0 17.1)"/><use xlink:href="#d" transform="matrix(1,0,0,1,374,182.5) translate(0 17.1)"/><use xlink:href="#l" transform="matrix(1,0,0,1,92,214.5) translate(13.049999999999999 17.1)"/><use xlink:href="#m" transform="matrix(1,0,0,1,152,214.5) translate(0 17.1)"/><use xlink:href="#d" transform="matrix(1,0,0,1,374,214.5) translate(0 17.1)"/><use xlink:href="#l" transform="matrix(1,0,0,1,92,246.5) translate(13.049999999999999 17.1)"/><use xlink:href="#n" transform="matrix(1,0,0,1,152,246.5) translate(0 17.1)"/><use xlink:href="#d" transform="matrix(1,0,0,1,374,246.5) translate(0 17.1)"/><use xlink:href="#o" transform="matrix(1,0,0,1,152,278.5) translate(0 17.1)"/><use xlink:href="#p" transform="matrix(1,0,0,1,374,278.5) translate(0 17.1)"/><use xlink:href="#q" transform="matrix(1,0,0,1,152,310.5) translate(0 17.1)"/><use xlink:href="#r" transform="matrix(1,0,0,1,374,310.5) translate(0 17.1)"/><use xlink:href="#s" transform="matrix(1,0,0,1,152,342.5) translate(0 17.1)"/><use xlink:href="#t" transform="matrix(1,0,0,1,374,342.5) translate(0 17.1)"/><use xlink:href="#u" transform="matrix(1,0,0,1,92,374.5) translate(13.049999999999999 17.1)"/><use xlink:href="#v" transform="matrix(1,0,0,1,152,374.5) translate(0 17.1)"/><use xlink:href="#w" transform="matrix(1,0,0,1,374,374.5) translate(0 17.1)"/><use xlink:href="#x" transform="matrix(1,0,0,1,152,406.5) translate(0 17.1)"/><use xlink:href="#y" transform="matrix(1,0,0,1,374,406.5) translate(0 17.1)"/><use xlink:href="#z" transform="matrix(1,0,0,1,152,438.5) translate(0 17.1)"/><use xlink:href="#A" transform="matrix(1,0,0,1,374,438.5) translate(0 17.1)"/><use xlink:href="#B" transform="matrix(1,0,0,1,152,470.5) translate(0 17.1)"/><use xlink:href="#C" transform="matrix(1,0,0,1,374,470.5) translate(0 17.1)"/><path d="M478 228h262.33" stroke="#000" stroke-width="2" fill="none"/><path d="M500.68 228l-21.8 10.9-.88-1.8 18.2-9.1-18.2-9.1.9-1.8z"/><path fill="#fff"/><path d="M721.33 238h-2v-20h2z"/><path d="M701 756h400v232H701z" fill="#fff"/><path d="M701 756h400v40H701z" fill="#ccc"/><path d="M701 756h400v232H701zM701 796h400M761 796v192M990.33 796v192" stroke="#000" stroke-width="2" fill="none"/><use xlink:href="#D" transform="matrix(1,0,0,1,711,756) translate(128.55 23.6)"/><use xlink:href="#E" transform="matrix(1,0,0,1,766,798.5) translate(0 17.1)"/><use xlink:href="#F" transform="matrix(1,0,0,1,995.3333333333333,798.5) translate(0 17.1)"/><use xlink:href="#G" transform="matrix(1,0,0,1,766,830.5) translate(0 17.1)"/><use xlink:href="#d" transform="matrix(1,0,0,1,995.3333333333333,830.5) translate(0 17.1)"/><use xlink:href="#H" transform="matrix(1,0,0,1,766,862.5) translate(0 17.1)"/><use xlink:href="#I" transform="matrix(1,0,0,1,995.3333333333333,862.5) translate(0 17.1)"/><use xlink:href="#q" transform="matrix(1,0,0,1,766,894.5) translate(0 17.1)"/><use xlink:href="#r" transform="matrix(1,0,0,1,995.3333333333333,894.5) translate(0 17.1)"/><use xlink:href="#J" transform="matrix(1,0,0,1,766,926.5) translate(0 17.1)"/><use xlink:href="#d" transform="matrix(1,0,0,1,995.3333333333333,926.5) translate(0 17.1)"/><use xlink:href="#K" transform="matrix(1,0,0,1,766,958.5) translate(0 17.1)"/><use xlink:href="#L" transform="matrix(1,0,0,1,995.3333333333333,958.5) translate(0 17.1)"/><path d="M82 520h400v316H82z" fill="#fff"/><path d="M82 520h400v40H82z" fill="#ccc"/><path d="M82 520h400v316H82zM82 560h400M142 560v276M364 560v276" stroke="#000" stroke-width="2" fill="none"/><use xlink:href="#M" transform="matrix(1,0,0,1,92,520) translate(125.5 23.6)"/><use xlink:href="#b" transform="matrix(1,0,0,1,87,562.5) translate(12.524999999999999 17.1)"/><use xlink:href="#N" transform="matrix(1,0,0,1,147,562.5) translate(0 17.1)"/><use xlink:href="#d" transform="matrix(1,0,0,1,369,562.5) translate(0 17.1)"/><use xlink:href="#G" transform="matrix(1,0,0,1,147,594.5) translate(0 17.1)"/><use xlink:href="#d" transform="matrix(1,0,0,1,369,594.5) translate(0 17.1)"/><use xlink:href="#H" transform="matrix(1,0,0,1,147,626.5) translate(0 17.1)"/><use xlink:href="#I" transform="matrix(1,0,0,1,369,626.5) translate(0 17.1)"/><use xlink:href="#O" transform="matrix(1,0,0,1,147,658.5) translate(0 17.1)"/><use xlink:href="#w" transform="matrix(1,0,0,1,369,658.5) translate(0 17.1)"/><use xlink:href="#P" transform="matrix(1,0,0,1,147,690.5) translate(0 17.1)"/><use xlink:href="#Q" transform="matrix(1,0,0,1,369,690.5) translate(0 17.1)"/><use xlink:href="#K" transform="matrix(1,0,0,1,147,722.5) translate(0 17.1)"/><use xlink:href="#L" transform="matrix(1,0,0,1,369,722.5) translate(0 17.1)"/><use xlink:href="#R" transform="matrix(1,0,0,1,147,754.5) translate(0 17.1)"/><use xlink:href="#S" transform="matrix(1,0,0,1,369,754.5) translate(0 17.1)"/><use xlink:href="#T" transform="matrix(1,0,0,1,147,786.5) translate(0 17.1)"/><use xlink:href="#U" transform="matrix(1,0,0,1,369,786.5) translate(0 17.1)"/><use xlink:href="#V" transform="matrix(1,0,0,1,147,818.5) translate(0 14.4)"/><use xlink:href="#W" transform="matrix(1,0,0,1,369,818.5) translate(0 14.4)"/><path d="M741 600h320v136H741z" fill="#fff"/><path d="M741 600h320v40H741z" fill="#ccc"/><path d="M741 600h320v136H741zM741 640h320M801 640v96M931 640v96" stroke="#000" stroke-width="2" fill="none"/><use xlink:href="#X" transform="matrix(1,0,0,1,751,600) translate(111.025 23.6)"/><use xlink:href="#Y" transform="matrix(1,0,0,1,746,642.5) translate(13 17.1)"/><use xlink:href="#Z" transform="matrix(1,0,0,1,806,642.5) translate(0 17.1)"/><use xlink:href="#aa" transform="matrix(1,0,0,1,936,642.5) translate(0 17.1)"/><use xlink:href="#ab" transform="matrix(1,0,0,1,806,674.5) translate(0 17.1)"/><use xlink:href="#ac" transform="matrix(1,0,0,1,936,674.5) translate(0 17.1)"/><use xlink:href="#ad" transform="matrix(1,0,0,1,806,706.5) translate(0 17.1)"/><use xlink:href="#ac" transform="matrix(1,0,0,1,936,706.5) translate(0 17.1)"/><path d="M741 380h340v200H741z" fill="#fff"/><path d="M741 380h340v40H741z" fill="#ccc"/><path d="M741 380h340v200H741zM741 420h340M801 420v160M958.33 420v160" stroke="#000" stroke-width="2" fill="none"/><use xlink:href="#ae" transform="matrix(1,0,0,1,751,380) translate(123.525 23.6)"/><use xlink:href="#b" transform="matrix(1,0,0,1,746,422.5) translate(12.524999999999999 17.1)"/><use xlink:href="#J" transform="matrix(1,0,0,1,806,422.5) translate(0 17.1)"/><use xlink:href="#d" transform="matrix(1,0,0,1,963.3333333333333,422.5) translate(0 17.1)"/><use xlink:href="#af" transform="matrix(1,0,0,1,806,454.5) translate(0 17.1)"/><use xlink:href="#p" transform="matrix(1,0,0,1,963.3333333333333,454.5) translate(0 17.1)"/><use xlink:href="#ag" transform="matrix(1,0,0,1,806,486.5) translate(0 17.1)"/><use xlink:href="#r" transform="matrix(1,0,0,1,963.3333333333333,486.5) translate(0 17.1)"/><use xlink:href="#ah" transform="matrix(1,0,0,1,806,518.5) translate(0 17.1)"/><use xlink:href="#r" transform="matrix(1,0,0,1,963.3333333333333,518.5) translate(0 17.1)"/><use xlink:href="#ai" transform="matrix(1,0,0,1,806,550.5) translate(0 17.1)"/><use xlink:href="#p" transform="matrix(1,0,0,1,963.3333333333333,550.5) translate(0 17.1)"/><path d="M478 388h134v48h128" stroke="#000" stroke-width="2" fill="none"/><path d="M500.68 388l-21.8 10.9-.88-1.8 18.2-9.1-18.2-9.1.9-1.8z"/><path fill="#fff"/><path d="M721 446h-2v-20h2z"/><path d="M576 20h505v136H576z" fill="#fff"/><path d="M576 20h505v40H576z" fill="#ccc"/><path d="M576 20h505v136H576zM576 60h505M636 60v96M950.33 60v96" stroke="#000" stroke-width="2" fill="none"/><use xlink:href="#aj" transform="matrix(1,0,0,1,585.9999999999998,20) translate(99.65000000000003 23.6)"/><use xlink:href="#b" transform="matrix(1,0,0,1,580.9999999999998,62.5) translate(12.524999999999999 17.1)"/><use xlink:href="#ak" transform="matrix(1,0,0,1,640.9999999999998,62.5) translate(0 17.1)"/><use xlink:href="#d" transform="matrix(1,0,0,1,955.3333333333333,62.5) translate(0 17.1)"/><use xlink:href="#l" transform="matrix(1,0,0,1,580.9999999999998,94.5) translate(13.049999999999999 17.1)"/><use xlink:href="#k" transform="matrix(1,0,0,1,640.9999999999998,94.5) translate(0 17.1)"/><use xlink:href="#d" transform="matrix(1,0,0,1,955.3333333333333,94.5) translate(0 17.1)"/><use xlink:href="#al" transform="matrix(1,0,0,1,640.9999999999998,126.5) translate(0 17.1)"/><use xlink:href="#d" transform="matrix(1,0,0,1,955.3333333333333,126.5) translate(0 17.1)"/><path d="M740.33 228H609.17v32H478" stroke="#000" stroke-width="2" fill="none"/><path fill="#fff"/><path d="M721.33 238h-2v-20h2zM500.68 260l-21.8 10.9-.88-1.8 18.2-9.1-18.2-9.1.9-1.8z"/><path d="M86 196H32v-88h543" stroke="#000" stroke-width="2" fill="none"/><path fill="#fff"/><path d="M67 206h-2v-20h2zM575 98.9l-18.2 9.1 18.2 9.1-.9 1.8-21.78-10.9 21.8-10.9z"/><path d="M740 436H612v504.34h88" stroke="#000" stroke-width="2" fill="none"/><path fill="#fff"/><path d="M721 446h-2v-20h2zM700 931.23l-18.2 9.1 18.2 9.12-.9 1.78-21.78-10.9 21.8-10.88z"/><defs><path d="M59-47c-2 24 18 29 38 22v24C64 9 27 4 27-40v-127H5v-23h24l9-43h21v43h35v23H59v120" id="am"/><path d="M115-194c53 0 69 39 70 98 0 66-23 100-70 100C84 3 66-7 56-30L54 0H23l1-261h32v101c10-23 28-34 59-34zm-8 174c40 0 45-34 45-75 0-40-5-75-45-74-42 0-51 32-51 76 0 43 10 73 51 73" id="an"/><path d="M-5 72V49h209v23H-5" id="ao"/><path d="M100-194c63 0 86 42 84 106H49c0 40 14 67 53 68 26 1 43-12 49-29l28 8c-11 28-37 45-77 45C44 4 14-33 15-96c1-61 26-98 85-98zm52 81c6-60-76-77-97-28-3 7-6 17-6 28h103" id="ap"/><path d="M108 0H70L1-190h34L89-25l56-165h34" id="aq"/><path d="M117-194c89-4 53 116 60 194h-32v-121c0-31-8-49-39-48C34-167 62-67 57 0H25l-1-190h30c1 10-1 24 2 32 11-22 29-35 61-36" id="ar"/><path d="M141-36C126-15 110 5 73 4 37 3 15-17 15-53c-1-64 63-63 125-63 3-35-9-54-41-54-24 1-41 7-42 31l-33-3c5-37 33-52 76-52 45 0 72 20 72 64v82c-1 20 7 32 28 27v20c-31 9-61-2-59-35zM48-53c0 20 12 33 32 33 41-3 63-29 60-74-43 2-92-5-92 41" id="as"/><path d="M24 0v-261h32V0H24" id="at"/><g id="a"><use transform="matrix(0.05,0,0,0.05,0,0)" xlink:href="#am"/><use transform="matrix(0.05,0,0,0.05,5,0)" xlink:href="#an"/><use transform="matrix(0.05,0,0,0.05,15,0)" xlink:href="#ao"/><use transform="matrix(0.05,0,0,0.05,25,0)" xlink:href="#ap"/><use transform="matrix(0.05,0,0,0.05,35,0)" xlink:href="#aq"/><use transform="matrix(0.05,0,0,0.05,44,0)" xlink:href="#ap"/><use transform="matrix(0.05,0,0,0.05,54,0)" xlink:href="#ar"/><use transform="matrix(0.05,0,0,0.05,64,0)" xlink:href="#am"/><use transform="matrix(0.05,0,0,0.05,69,0)" xlink:href="#ao"/><use transform="matrix(0.05,0,0,0.05,79,0)" xlink:href="#am"/><use transform="matrix(0.05,0,0,0.05,84,0)" xlink:href="#as"/><use transform="matrix(0.05,0,0,0.05,94,0)" xlink:href="#an"/><use transform="matrix(0.05,0,0,0.05,104,0)" xlink:href="#at"/><use transform="matrix(0.05,0,0,0.05,107.95,0)" xlink:href="#ap"/></g><path d="M24-248c93 1 206-16 204 79-1 75-69 88-152 82V0H24v-248zm52 121c47 0 100 7 100-41 0-47-54-39-100-39v80" id="au"/><path d="M195 0l-88-114-31 24V0H24v-248h52v113l112-113h60L142-143 257 0h-62" id="av"/><g id="b"><use transform="matrix(0.05,0,0,0.05,0,0)" xlink:href="#au"/><use transform="matrix(0.05,0,0,0.05,12,0)" xlink:href="#av"/></g><path d="M185-48c-13 30-37 53-82 52C43 2 14-33 14-96s30-98 90-98c62 0 83 45 84 108H66c0 31 8 55 39 56 18 0 30-7 34-22zm-45-69c5-46-57-63-70-21-2 6-4 13-4 21h74" id="aw"/><path d="M128 0H69L1-190h53L99-40l48-150h52" id="ax"/><path d="M135-194c87-1 58 113 63 194h-50c-7-57 23-157-34-157-59 0-34 97-39 157H25l-1-190h47c2 12-1 28 3 38 12-26 28-41 61-42" id="ay"/><path d="M115-3C79 11 28 4 28-45v-112H4v-33h27l15-45h31v45h36v33H77v99c-1 23 16 31 38 25v30" id="az"/><path d="M-4 44V30h207v14H-4" id="aA"/><path d="M133-34C117-15 103 5 69 4 32 3 11-16 11-54c-1-60 55-63 116-61 1-26-3-47-28-47-18 1-26 9-28 27l-52-2c7-38 36-58 82-57s74 22 75 68l1 82c-1 14 12 18 25 15v27c-30 8-71 5-69-32zm-48 3c29 0 43-24 42-57-32 0-66-3-65 30 0 17 8 27 23 27" id="aB"/><path d="M135-194c52 0 70 43 70 98 0 56-19 99-73 100-30 1-46-15-58-35L72 0H24l1-261h50v104c11-23 29-37 60-37zM114-30c31 0 40-27 40-66 0-37-7-63-39-63s-41 28-41 65c0 36 8 64 40 64" id="aC"/><path d="M25 0v-261h50V0H25" id="aD"/><g id="c"><use transform="matrix(0.05,0,0,0.05,0,0)" xlink:href="#aw"/><use transform="matrix(0.05,0,0,0.05,10,0)" xlink:href="#ax"/><use transform="matrix(0.05,0,0,0.05,20,0)" xlink:href="#aw"/><use transform="matrix(0.05,0,0,0.05,30,0)" xlink:href="#ay"/><use transform="matrix(0.05,0,0,0.05,40.95,0)" xlink:href="#az"/><use transform="matrix(0.05,0,0,0.05,46.900000000000006,0)" xlink:href="#aA"/><use transform="matrix(0.05,0,0,0.05,56.900000000000006,0)" xlink:href="#az"/><use transform="matrix(0.05,0,0,0.05,62.85,0)" xlink:href="#aB"/><use transform="matrix(0.05,0,0,0.05,72.85000000000001,0)" xlink:href="#aC"/><use transform="matrix(0.05,0,0,0.05,83.80000000000001,0)" xlink:href="#aD"/><use transform="matrix(0.05,0,0,0.05,88.80000000000001,0)" xlink:href="#aw"/></g><path d="M24 0v-248h52V0H24" id="aE"/><path d="M175 0L67-191c6 58 2 128 3 191H24v-248h59L193-55c-6-58-2-129-3-193h46V0h-61" id="aF"/><path d="M136-208V0H84v-208H4v-40h212v40h-80" id="aG"/><path d="M24 0v-248h195v40H76v63h132v40H76v65h150V0H24" id="aH"/><path d="M67-125c0 54 23 88 75 88 28 0 53-7 68-21v-34h-60v-39h108v91C232-14 192 4 140 4 58 4 20-42 15-125 8-236 126-280 215-234c19 10 29 26 37 47l-47 15c-11-23-29-39-63-39-53 1-75 33-75 86" id="aI"/><path d="M240-174c0 40-23 61-54 70L253 0h-59l-57-94H76V0H24v-248c93 4 217-23 216 74zM76-134c48-2 112 12 112-38 0-48-66-32-112-35v73" id="aJ"/><g id="d"><use transform="matrix(0.05,0,0,0.05,0,0)" xlink:href="#aE"/><use transform="matrix(0.05,0,0,0.05,5,0)" xlink:href="#aF"/><use transform="matrix(0.05,0,0,0.05,17.950000000000003,0)" xlink:href="#aG"/><use transform="matrix(0.05,0,0,0.05,28.900000000000006,0)" xlink:href="#aH"/><use transform="matrix(0.05,0,0,0.05,40.900000000000006,0)" xlink:href="#aI"/><use transform="matrix(0.05,0,0,0.05,54.900000000000006,0)" xlink:href="#aH"/><use transform="matrix(0.05,0,0,0.05,66.9,0)" xlink:href="#aJ"/></g><path d="M137-138c1-29-70-34-71-4 15 46 118 7 119 86 1 83-164 76-172 9l43-7c4 19 20 25 44 25 33 8 57-30 24-41C81-84 22-81 20-136c-2-80 154-74 161-7" id="aK"/><path d="M190-63c-7 42-38 67-86 67-59 0-84-38-90-98-12-110 154-137 174-36l-49 2c-2-19-15-32-35-32-30 0-35 28-38 64-6 74 65 87 74 30" id="aL"/><path d="M114-157C55-157 80-60 75 0H25v-261h50l-1 109c12-26 28-41 61-42 86-1 58 113 63 194h-50c-7-57 23-157-34-157" id="aM"/><path d="M220-157c-53 9-28 100-34 157h-49v-107c1-27-5-49-29-50C55-147 81-57 75 0H25l-1-190h47c2 12-1 28 3 38 10-53 101-56 108 0 13-22 24-43 59-42 82 1 51 116 57 194h-49v-107c-1-25-5-48-29-50" id="aN"/><g id="e"><use transform="matrix(0.05,0,0,0.05,0,0)" xlink:href="#aK"/><use transform="matrix(0.05,0,0,0.05,10,0)" xlink:href="#aL"/><use transform="matrix(0.05,0,0,0.05,20,0)" xlink:href="#aM"/><use transform="matrix(0.05,0,0,0.05,30.950000000000003,0)" xlink:href="#aw"/><use transform="matrix(0.05,0,0,0.05,40.95,0)" xlink:href="#aN"/><use transform="matrix(0.05,0,0,0.05,56.95,0)" xlink:href="#aB"/><use transform="matrix(0.05,0,0,0.05,66.95,0)" xlink:href="#aA"/><use transform="matrix(0.05,0,0,0.05,76.95,0)" xlink:href="#ay"/><use transform="matrix(0.05,0,0,0.05,87.9,0)" xlink:href="#aB"/><use transform="matrix(0.05,0,0,0.05,97.9,0)" xlink:href="#aN"/><use transform="matrix(0.05,0,0,0.05,113.9,0)" xlink:href="#aw"/></g><path d="M147 0H94L2-248h55l64 206c17-72 42-137 63-206h54" id="aO"/><path d="M199 0l-22-63H83L61 0H9l90-248h61L250 0h-51zm-33-102l-36-108c-10 38-24 72-36 108h72" id="aP"/><path d="M67-125c0 53 21 87 73 88 37 1 54-22 65-47l45 17C233-25 199 4 140 4 58 4 20-42 15-125 8-235 124-281 211-232c18 10 29 29 36 50l-46 12c-8-25-30-41-62-41-52 0-71 34-72 86" id="aQ"/><path d="M186 0v-106H76V0H24v-248h52v99h110v-99h50V0h-50" id="aR"/><path d="M67-93c0 74 22 123 53 168H70C40 30 18-18 18-93s22-123 52-168h50c-32 44-53 94-53 168" id="aS"/><path d="M115-159c48 0 72 30 72 78 0 54-30 85-83 85-64 0-91-50-91-122 0-98 58-163 141-120 15 8 21 24 27 44l-47 6c-5-31-48-31-61-4-7 14-11 33-11 60 9-17 28-27 53-27zM102-35c24 0 36-20 36-45s-11-43-37-43c-23 0-36 14-36 38 0 27 11 50 37 50" id="aT"/><path d="M128-127c34 4 56 21 59 58 7 91-148 94-172 28-4-9-6-17-7-26l51-5c1 24 16 35 40 36 23 0 39-12 38-36-1-31-31-36-65-34v-40c32 2 59-3 59-33 0-20-13-33-34-33s-33 13-35 32l-50-3c6-44 37-68 86-68 50 0 83 20 83 66 0 35-22 52-53 58" id="aU"/><path d="M102-93c0 74-22 123-52 168H0C30 29 54-18 53-93c0-74-22-123-53-168h50c30 45 52 94 52 168" id="aV"/><g id="f"><use transform="matrix(0.05,0,0,0.05,0,0)" xlink:href="#aO"/><use transform="matrix(0.05,0,0,0.05,10.65,0)" xlink:href="#aP"/><use transform="matrix(0.05,0,0,0.05,23.6,0)" xlink:href="#aJ"/><use transform="matrix(0.05,0,0,0.05,36.550000000000004,0)" xlink:href="#aQ"/><use transform="matrix(0.05,0,0,0.05,49.50000000000001,0)" xlink:href="#aR"/><use transform="matrix(0.05,0,0,0.05,62.45000000000002,0)" xlink:href="#aP"/><use transform="matrix(0.05,0,0,0.05,75.4,0)" xlink:href="#aJ"/><use transform="matrix(0.05,0,0,0.05,88.35000000000001,0)" xlink:href="#aS"/><use transform="matrix(0.05,0,0,0.05,94.30000000000001,0)" xlink:href="#aT"/><use transform="matrix(0.05,0,0,0.05,104.30000000000001,0)" xlink:href="#aU"/><use transform="matrix(0.05,0,0,0.05,114.30000000000001,0)" xlink:href="#aV"/></g><g id="g"><use transform="matrix(0.05,0,0,0.05,0,0)" xlink:href="#az"/><use transform="matrix(0.05,0,0,0.05,5.95,0)" xlink:href="#aB"/><use transform="matrix(0.05,0,0,0.05,15.949999999999998,0)" xlink:href="#aC"/><use transform="matrix(0.05,0,0,0.05,26.899999999999995,0)" xlink:href="#aD"/><use transform="matrix(0.05,0,0,0.05,31.899999999999995,0)" xlink:href="#aw"/><use transform="matrix(0.05,0,0,0.05,41.9,0)" xlink:href="#aA"/><use transform="matrix(0.05,0,0,0.05,51.900000000000006,0)" xlink:href="#ay"/><use transform="matrix(0.05,0,0,0.05,62.85,0)" xlink:href="#aB"/><use transform="matrix(0.05,0,0,0.05,72.85,0)" xlink:href="#aN"/><use transform="matrix(0.05,0,0,0.05,88.85,0)" xlink:href="#aw"/></g><path d="M96-169c-40 0-48 33-48 73s9 75 48 75c24 0 41-14 43-38l32 2c-6 37-31 61-74 61-59 0-76-41-82-99-10-93 101-131 147-64 4 7 5 14 7 22l-32 3c-4-21-16-35-41-35" id="aW"/><path d="M100-194c62-1 85 37 85 99 1 63-27 99-86 99S16-35 15-95c0-66 28-99 85-99zM99-20c44 1 53-31 53-75 0-43-8-75-51-75s-53 32-53 75 10 74 51 75" id="aX"/><path d="M84 4C-5 8 30-112 23-190h32v120c0 31 7 50 39 49 72-2 45-101 50-169h31l1 190h-30c-1-10 1-25-2-33-11 22-28 36-60 37" id="aY"/><path d="M210-169c-67 3-38 105-44 169h-31v-121c0-29-5-50-35-48C34-165 62-65 56 0H25l-1-190h30c1 10-1 24 2 32 10-44 99-50 107 0 11-21 27-35 58-36 85-2 47 119 55 194h-31v-121c0-29-5-49-35-48" id="aZ"/><g id="h"><use transform="matrix(0.05,0,0,0.05,0,0)" xlink:href="#aW"/><use transform="matrix(0.05,0,0,0.05,9,0)" xlink:href="#aX"/><use transform="matrix(0.05,0,0,0.05,19,0)" xlink:href="#at"/><use transform="matrix(0.05,0,0,0.05,22.95,0)" xlink:href="#aY"/><use transform="matrix(0.05,0,0,0.05,32.95,0)" xlink:href="#aZ"/><use transform="matrix(0.05,0,0,0.05,47.900000000000006,0)" xlink:href="#ar"/><use transform="matrix(0.05,0,0,0.05,57.900000000000006,0)" xlink:href="#ao"/><use transform="matrix(0.05,0,0,0.05,67.9,0)" xlink:href="#ar"/><use transform="matrix(0.05,0,0,0.05,77.9,0)" xlink:href="#as"/><use transform="matrix(0.05,0,0,0.05,87.9,0)" xlink:href="#aZ"/><use transform="matrix(0.05,0,0,0.05,102.85000000000001,0)" xlink:href="#ap"/></g><path d="M137 0h-34L2-248h35l83 218 83-218h36" id="ba"/><path d="M205 0l-28-72H64L36 0H1l101-248h38L239 0h-34zm-38-99l-47-123c-12 45-31 82-46 123h93" id="bb"/><path d="M233-177c-1 41-23 64-60 70L243 0h-38l-65-103H63V0H30v-248c88 3 205-21 203 71zM63-129c60-2 137 13 137-47 0-61-80-42-137-45v92" id="bc"/><path d="M212-179c-10-28-35-45-73-45-59 0-87 40-87 99 0 60 29 101 89 101 43 0 62-24 78-52l27 14C228-24 195 4 139 4 59 4 22-46 18-125c-6-104 99-153 187-111 19 9 31 26 39 46" id="bd"/><path d="M197 0v-115H63V0H30v-248h33v105h134v-105h34V0h-34" id="be"/><path d="M26 75v-336h71v23H56V52h41v23H26" id="bf"/><path d="M3 75V52h41v-290H3v-23h71V75H3" id="bg"/><g id="i"><use transform="matrix(0.05,0,0,0.05,0,0)" xlink:href="#ba"/><use transform="matrix(0.05,0,0,0.05,10.65,0)" xlink:href="#bb"/><use transform="matrix(0.05,0,0,0.05,22.65,0)" xlink:href="#bc"/><use transform="matrix(0.05,0,0,0.05,35.6,0)" xlink:href="#bd"/><use transform="matrix(0.05,0,0,0.05,48.550000000000004,0)" xlink:href="#be"/><use transform="matrix(0.05,0,0,0.05,61.5,0)" xlink:href="#bb"/><use transform="matrix(0.05,0,0,0.05,73.5,0)" xlink:href="#bc"/><use transform="matrix(0.05,0,0,0.05,86.45,0)" xlink:href="#bf"/><use transform="matrix(0.05,0,0,0.05,91.45,0)" xlink:href="#bg"/></g><path d="M206 0h-36l-40-164L89 0H53L-1-190h32L70-26l43-164h34l41 164 42-164h31" id="bh"/><path d="M114-163C36-179 61-72 57 0H25l-1-190h30c1 12-1 29 2 39 6-27 23-49 58-41v29" id="bi"/><path d="M143 0L79-87 56-68V0H24v-261h32v163l83-92h37l-77 82L181 0h-38" id="bj"/><path d="M24-231v-30h32v30H24zM24 0v-190h32V0H24" id="bk"/><g id="j"><use transform="matrix(0.05,0,0,0.05,0,0)" xlink:href="#am"/><use transform="matrix(0.05,0,0,0.05,5,0)" xlink:href="#an"/><use transform="matrix(0.05,0,0,0.05,15,0)" xlink:href="#ao"/><use transform="matrix(0.05,0,0,0.05,25,0)" xlink:href="#ap"/><use transform="matrix(0.05,0,0,0.05,35,0)" xlink:href="#aq"/><use transform="matrix(0.05,0,0,0.05,44,0)" xlink:href="#ap"/><use transform="matrix(0.05,0,0,0.05,54,0)" xlink:href="#ar"/><use transform="matrix(0.05,0,0,0.05,64,0)" xlink:href="#am"/><use transform="matrix(0.05,0,0,0.05,69,0)" xlink:href="#ao"/><use transform="matrix(0.05,0,0,0.05,79,0)" xlink:href="#am"/><use transform="matrix(0.05,0,0,0.05,84,0)" xlink:href="#as"/><use transform="matrix(0.05,0,0,0.05,94,0)" xlink:href="#an"/><use transform="matrix(0.05,0,0,0.05,104,0)" xlink:href="#at"/><use transform="matrix(0.05,0,0,0.05,107.95,0)" xlink:href="#ap"/><use transform="matrix(0.05,0,0,0.05,117.95,0)" xlink:href="#ao"/><use transform="matrix(0.05,0,0,0.05,127.95,0)" xlink:href="#bh"/><use transform="matrix(0.05,0,0,0.05,140.9,0)" xlink:href="#aX"/><use transform="matrix(0.05,0,0,0.05,150.9,0)" xlink:href="#bi"/><use transform="matrix(0.05,0,0,0.05,156.85,0)" xlink:href="#bj"/><use transform="matrix(0.05,0,0,0.05,165.85,0)" xlink:href="#ao"/><use transform="matrix(0.05,0,0,0.05,175.85,0)" xlink:href="#bk"/><use transform="matrix(0.05,0,0,0.05,179.79999999999998,0)" xlink:href="#am"/><use transform="matrix(0.05,0,0,0.05,184.79999999999998,0)" xlink:href="#ap"/><use transform="matrix(0.05,0,0,0.05,194.79999999999998,0)" xlink:href="#aZ"/></g><path d="M231 0h-52l-39-155L100 0H48L-1-190h46L77-45c9-52 24-97 36-145h53l37 145 32-145h46" id="bl"/><path d="M110-194c64 0 96 36 96 99 0 64-35 99-97 99-61 0-95-36-95-99 0-62 34-99 96-99zm-1 164c35 0 45-28 45-65 0-40-10-65-43-65-34 0-45 26-45 65 0 36 10 65 43 65" id="bm"/><path d="M135-150c-39-12-60 13-60 57V0H25l-1-190h47c2 13-1 29 3 40 6-28 27-53 61-41v41" id="bn"/><path d="M147 0L96-86 75-71V0H25v-261h50v150l67-79h53l-66 74L201 0h-54" id="bo"/><path d="M25-224v-37h50v37H25zM25 0v-190h50V0H25" id="bp"/><g id="k"><use transform="matrix(0.05,0,0,0.05,0,0)" xlink:href="#aw"/><use transform="matrix(0.05,0,0,0.05,10,0)" xlink:href="#ax"/><use transform="matrix(0.05,0,0,0.05,20,0)" xlink:href="#aw"/><use transform="matrix(0.05,0,0,0.05,30,0)" xlink:href="#ay"/><use transform="matrix(0.05,0,0,0.05,40.95,0)" xlink:href="#az"/><use transform="matrix(0.05,0,0,0.05,46.900000000000006,0)" xlink:href="#aA"/><use transform="matrix(0.05,0,0,0.05,56.900000000000006,0)" xlink:href="#az"/><use transform="matrix(0.05,0,0,0.05,62.85,0)" xlink:href="#aB"/><use transform="matrix(0.05,0,0,0.05,72.85000000000001,0)" xlink:href="#aC"/><use transform="matrix(0.05,0,0,0.05,83.80000000000001,0)" xlink:href="#aD"/><use transform="matrix(0.05,0,0,0.05,88.80000000000001,0)" xlink:href="#aw"/><use transform="matrix(0.05,0,0,0.05,98.80000000000001,0)" xlink:href="#aA"/><use transform="matrix(0.05,0,0,0.05,108.80000000000001,0)" xlink:href="#bl"/><use transform="matrix(0.05,0,0,0.05,122.80000000000001,0)" xlink:href="#bm"/><use transform="matrix(0.05,0,0,0.05,133.75,0)" xlink:href="#bn"/><use transform="matrix(0.05,0,0,0.05,140.75,0)" xlink:href="#bo"/><use transform="matrix(0.05,0,0,0.05,150.75,0)" xlink:href="#aA"/><use transform="matrix(0.05,0,0,0.05,160.75,0)" xlink:href="#bp"/><use transform="matrix(0.05,0,0,0.05,165.75,0)" xlink:href="#az"/><use transform="matrix(0.05,0,0,0.05,171.7,0)" xlink:href="#aw"/><use transform="matrix(0.05,0,0,0.05,181.7,0)" xlink:href="#aN"/></g><path d="M76-208v77h127v40H76V0H24v-248h183v40H76" id="bq"/><g id="l"><use transform="matrix(0.05,0,0,0.05,0,0)" xlink:href="#bq"/><use transform="matrix(0.05,0,0,0.05,10.950000000000001,0)" xlink:href="#av"/></g><path d="M85 4C-2 5 27-109 22-190h50c7 57-23 150 33 157 60-5 35-97 40-157h50l1 190h-47c-2-12 1-28-3-38-12 25-28 42-61 42" id="br"/><g id="m"><use transform="matrix(0.05,0,0,0.05,0,0)" xlink:href="#aK"/><use transform="matrix(0.05,0,0,0.05,10,0)" xlink:href="#bm"/><use transform="matrix(0.05,0,0,0.05,20.950000000000003,0)" xlink:href="#br"/><use transform="matrix(0.05,0,0,0.05,31.900000000000006,0)" xlink:href="#bn"/><use transform="matrix(0.05,0,0,0.05,38.900000000000006,0)" xlink:href="#aL"/><use transform="matrix(0.05,0,0,0.05,48.900000000000006,0)" xlink:href="#aw"/><use transform="matrix(0.05,0,0,0.05,58.900000000000006,0)" xlink:href="#aA"/><use transform="matrix(0.05,0,0,0.05,68.9,0)" xlink:href="#aw"/><use transform="matrix(0.05,0,0,0.05,78.9,0)" xlink:href="#ax"/><use transform="matrix(0.05,0,0,0.05,88.9,0)" xlink:href="#aw"/><use transform="matrix(0.05,0,0,0.05,98.9,0)" xlink:href="#ay"/><use transform="matrix(0.05,0,0,0.05,109.85000000000001,0)" xlink:href="#az"/><use transform="matrix(0.05,0,0,0.05,115.80000000000001,0)" xlink:href="#aA"/><use transform="matrix(0.05,0,0,0.05,125.80000000000001,0)" xlink:href="#az"/><use transform="matrix(0.05,0,0,0.05,131.75,0)" xlink:href="#aB"/><use transform="matrix(0.05,0,0,0.05,141.75,0)" xlink:href="#aC"/><use transform="matrix(0.05,0,0,0.05,152.7,0)" xlink:href="#aD"/><use transform="matrix(0.05,0,0,0.05,157.7,0)" xlink:href="#aw"/></g><path d="M195-6C206 82 75 100 31 46c-4-6-6-13-8-21l49-6c3 16 16 24 34 25 40 0 42-37 40-79-11 22-30 35-61 35-53 0-70-43-70-97 0-56 18-96 73-97 30 0 46 14 59 34l2-30h47zm-90-29c32 0 41-27 41-63 0-35-9-62-40-62-32 0-39 29-40 63 0 36 9 62 39 62" id="bs"/><g id="n"><use transform="matrix(0.05,0,0,0.05,0,0)" xlink:href="#az"/><use transform="matrix(0.05,0,0,0.05,5.95,0)" xlink:href="#aB"/><use transform="matrix(0.05,0,0,0.05,15.949999999999998,0)" xlink:href="#bn"/><use transform="matrix(0.05,0,0,0.05,22.95,0)" xlink:href="#bs"/><use transform="matrix(0.05,0,0,0.05,33.9,0)" xlink:href="#aw"/><use transform="matrix(0.05,0,0,0.05,43.9,0)" xlink:href="#az"/><use transform="matrix(0.05,0,0,0.05,49.85,0)" xlink:href="#aA"/><use transform="matrix(0.05,0,0,0.05,59.85,0)" xlink:href="#aw"/><use transform="matrix(0.05,0,0,0.05,69.85,0)" xlink:href="#ax"/><use transform="matrix(0.05,0,0,0.05,79.85,0)" xlink:href="#aw"/><use transform="matrix(0.05,0,0,0.05,89.85,0)" xlink:href="#ay"/><use transform="matrix(0.05,0,0,0.05,100.8,0)" xlink:href="#az"/><use transform="matrix(0.05,0,0,0.05,106.75,0)" xlink:href="#aA"/><use transform="matrix(0.05,0,0,0.05,116.75,0)" xlink:href="#az"/><use transform="matrix(0.05,0,0,0.05,122.7,0)" xlink:href="#aB"/><use transform="matrix(0.05,0,0,0.05,132.7,0)" xlink:href="#aC"/><use transform="matrix(0.05,0,0,0.05,143.64999999999998,0)" xlink:href="#aD"/><use transform="matrix(0.05,0,0,0.05,148.64999999999998,0)" xlink:href="#aw"/></g><path d="M85-194c31 0 48 13 60 33l-1-100h32l1 261h-30c-2-10 0-23-3-31C134-8 116 4 85 4 32 4 16-35 15-94c0-66 23-100 70-100zm9 24c-40 0-46 34-46 75 0 40 6 74 45 74 42 0 51-32 51-76 0-42-9-74-50-73" id="bt"/><path d="M135-143c-3-34-86-38-87 0 15 53 115 12 119 90S17 21 10-45l28-5c4 36 97 45 98 0-10-56-113-15-118-90-4-57 82-63 122-42 12 7 21 19 24 35" id="bu"/><path d="M115-194c55 1 70 41 70 98S169 2 115 4C84 4 66-9 55-30l1 105H24l-1-265h31l2 30c10-21 28-34 59-34zm-8 174c40 0 45-34 45-75s-6-73-45-74c-42 0-51 32-51 76 0 43 10 73 51 73" id="bv"/><g id="o"><use transform="matrix(0.05,0,0,0.05,0,0)" xlink:href="#bt"/><use transform="matrix(0.05,0,0,0.05,10,0)" xlink:href="#ap"/><use transform="matrix(0.05,0,0,0.05,20,0)" xlink:href="#bu"/><use transform="matrix(0.05,0,0,0.05,29,0)" xlink:href="#aW"/><use transform="matrix(0.05,0,0,0.05,38,0)" xlink:href="#bi"/><use transform="matrix(0.05,0,0,0.05,43.95,0)" xlink:href="#bk"/><use transform="matrix(0.05,0,0,0.05,47.900000000000006,0)" xlink:href="#bv"/><use transform="matrix(0.05,0,0,0.05,57.900000000000006,0)" xlink:href="#am"/><use transform="matrix(0.05,0,0,0.05,62.900000000000006,0)" xlink:href="#bk"/><use transform="matrix(0.05,0,0,0.05,66.85000000000001,0)" xlink:href="#aX"/><use transform="matrix(0.05,0,0,0.05,76.85000000000001,0)" xlink:href="#ar"/></g><path d="M153-248C145-148 188 4 80 4 36 3 13-21 6-62l32-5c4 25 16 42 43 43 27 0 39-20 39-49v-147H72v-28h81" id="bw"/><path d="M185-189c-5-48-123-54-124 2 14 75 158 14 163 119 3 78-121 87-175 55-17-10-28-26-33-46l33-7c5 56 141 63 141-1 0-78-155-14-162-118-5-82 145-84 179-34 5 7 8 16 11 25" id="bx"/><path d="M140-251c81 0 123 46 123 126C263-46 219 4 140 4 59 4 17-45 17-125s42-126 123-126zm0 227c63 0 89-41 89-101s-29-99-89-99c-61 0-89 39-89 99S79-25 140-24" id="by"/><path d="M190 0L58-211 59 0H30v-248h39L202-35l-2-213h31V0h-41" id="bz"/><path d="M160-131c35 5 61 23 61 61C221 17 115-2 30 0v-248c76 3 177-17 177 60 0 33-19 50-47 57zm-97-11c50-1 110 9 110-42 0-47-63-36-110-37v79zm0 115c55-2 124 14 124-45 0-56-70-42-124-44v89" id="bA"/><g id="p"><use transform="matrix(0.05,0,0,0.05,0,0)" xlink:href="#bw"/><use transform="matrix(0.05,0,0,0.05,9,0)" xlink:href="#bx"/><use transform="matrix(0.05,0,0,0.05,21,0)" xlink:href="#by"/><use transform="matrix(0.05,0,0,0.05,35,0)" xlink:href="#bz"/><use transform="matrix(0.05,0,0,0.05,47.95,0)" xlink:href="#bA"/></g><g id="q"><use transform="matrix(0.05,0,0,0.05,0,0)" xlink:href="#am"/><use transform="matrix(0.05,0,0,0.05,5,0)" xlink:href="#bi"/><use transform="matrix(0.05,0,0,0.05,10.95,0)" xlink:href="#as"/><use transform="matrix(0.05,0,0,0.05,20.95,0)" xlink:href="#ar"/><use transform="matrix(0.05,0,0,0.05,30.950000000000003,0)" xlink:href="#bu"/><use transform="matrix(0.05,0,0,0.05,39.95,0)" xlink:href="#as"/><use transform="matrix(0.05,0,0,0.05,49.95,0)" xlink:href="#aW"/><use transform="matrix(0.05,0,0,0.05,58.95,0)" xlink:href="#am"/><use transform="matrix(0.05,0,0,0.05,63.95,0)" xlink:href="#bk"/><use transform="matrix(0.05,0,0,0.05,67.9,0)" xlink:href="#aX"/><use transform="matrix(0.05,0,0,0.05,77.9,0)" xlink:href="#ar"/><use transform="matrix(0.05,0,0,0.05,87.9,0)" xlink:href="#ao"/><use transform="matrix(0.05,0,0,0.05,97.9,0)" xlink:href="#at"/><use transform="matrix(0.05,0,0,0.05,101.85000000000001,0)" xlink:href="#as"/><use transform="matrix(0.05,0,0,0.05,111.85000000000001,0)" xlink:href="#an"/><use transform="matrix(0.05,0,0,0.05,121.85000000000001,0)" xlink:href="#ap"/><use transform="matrix(0.05,0,0,0.05,131.85000000000002,0)" xlink:href="#at"/></g><g id="r"><use transform="matrix(0.05,0,0,0.05,0,0)" xlink:href="#ba"/><use transform="matrix(0.05,0,0,0.05,10.65,0)" xlink:href="#bb"/><use transform="matrix(0.05,0,0,0.05,22.65,0)" xlink:href="#bc"/><use transform="matrix(0.05,0,0,0.05,35.6,0)" xlink:href="#bd"/><use transform="matrix(0.05,0,0,0.05,48.550000000000004,0)" xlink:href="#be"/><use transform="matrix(0.05,0,0,0.05,61.5,0)" xlink:href="#bb"/><use transform="matrix(0.05,0,0,0.05,73.5,0)" xlink:href="#bc"/></g><path d="M84 4C32 4 15-41 15-95c0-55 18-99 73-99 29 0 47 12 58 34l2-30h48l-1 265h-49V-32C136-9 114 4 84 4zm21-34c32 0 41-29 41-66 0-36-9-64-40-64-33 0-39 30-40 65 0 43 13 65 39 65" id="bB"/><path d="M123 10C108 53 80 86 19 72V37c35 8 53-11 59-39L3-190h52l48 148c12-52 28-100 44-148h51" id="bC"/><g id="s"><use transform="matrix(0.05,0,0,0.05,0,0)" xlink:href="#bl"/><use transform="matrix(0.05,0,0,0.05,14,0)" xlink:href="#bm"/><use transform="matrix(0.05,0,0,0.05,24.950000000000003,0)" xlink:href="#bn"/><use transform="matrix(0.05,0,0,0.05,31.950000000000003,0)" xlink:href="#bo"/><use transform="matrix(0.05,0,0,0.05,41.95,0)" xlink:href="#aA"/><use transform="matrix(0.05,0,0,0.05,51.95,0)" xlink:href="#bp"/><use transform="matrix(0.05,0,0,0.05,56.95,0)" xlink:href="#az"/><use transform="matrix(0.05,0,0,0.05,62.900000000000006,0)" xlink:href="#aw"/><use transform="matrix(0.05,0,0,0.05,72.9,0)" xlink:href="#aN"/><use transform="matrix(0.05,0,0,0.05,88.9,0)" xlink:href="#aA"/><use transform="matrix(0.05,0,0,0.05,98.9,0)" xlink:href="#bB"/><use transform="matrix(0.05,0,0,0.05,109.85000000000001,0)" xlink:href="#br"/><use transform="matrix(0.05,0,0,0.05,120.80000000000001,0)" xlink:href="#aw"/><use transform="matrix(0.05,0,0,0.05,130.8,0)" xlink:href="#bn"/><use transform="matrix(0.05,0,0,0.05,137.8,0)" xlink:href="#bC"/></g><path d="M182 0l-62-99L58 0H3l86-130-79-118h55l55 88 55-88h55l-75 118L237 0h-55" id="bD"/><g id="t"><use transform="matrix(0.05,0,0,0.05,0,0)" xlink:href="#aG"/><use transform="matrix(0.05,0,0,0.05,10.950000000000001,0)" xlink:href="#aH"/><use transform="matrix(0.05,0,0,0.05,22.950000000000003,0)" xlink:href="#bD"/><use transform="matrix(0.05,0,0,0.05,34.95,0)" xlink:href="#aG"/></g><g id="u"><use transform="matrix(0.05,0,0,0.05,0,0)" xlink:href="#bq"/><use transform="matrix(0.05,0,0,0.05,10.950000000000001,0)" xlink:href="#av"/></g><g id="v"><use transform="matrix(0.05,0,0,0.05,0,0)" xlink:href="#aB"/><use transform="matrix(0.05,0,0,0.05,10,0)" xlink:href="#aL"/><use transform="matrix(0.05,0,0,0.05,20,0)" xlink:href="#az"/><use transform="matrix(0.05,0,0,0.05,25.950000000000003,0)" xlink:href="#bp"/><use transform="matrix(0.05,0,0,0.05,30.950000000000003,0)" xlink:href="#bm"/><use transform="matrix(0.05,0,0,0.05,41.9,0)" xlink:href="#ay"/></g><g id="w"><use transform="matrix(0.05,0,0,0.05,0,0)" xlink:href="#aE"/><use transform="matrix(0.05,0,0,0.05,5,0)" xlink:href="#aF"/><use transform="matrix(0.05,0,0,0.05,17.950000000000003,0)" xlink:href="#aG"/><use transform="matrix(0.05,0,0,0.05,28.900000000000006,0)" xlink:href="#aH"/><use transform="matrix(0.05,0,0,0.05,40.900000000000006,0)" xlink:href="#aI"/><use transform="matrix(0.05,0,0,0.05,54.900000000000006,0)" xlink:href="#aH"/><use transform="matrix(0.05,0,0,0.05,66.9,0)" xlink:href="#aJ"/></g><path d="M106-169C34-169 62-67 57 0H25v-261h32l-1 103c12-21 28-36 61-36 89 0 53 116 60 194h-32v-121c2-32-8-49-39-48" id="bE"/><path d="M101-234c-31-9-42 10-38 44h38v23H63V0H32v-167H5v-23h27c-7-52 17-82 69-68v24" id="bF"/><g id="x"><use transform="matrix(0.05,0,0,0.05,0,0)" xlink:href="#bh"/><use transform="matrix(0.05,0,0,0.05,12.950000000000001,0)" xlink:href="#bE"/><use transform="matrix(0.05,0,0,0.05,22.950000000000003,0)" xlink:href="#ap"/><use transform="matrix(0.05,0,0,0.05,32.95,0)" xlink:href="#ar"/><use transform="matrix(0.05,0,0,0.05,42.95,0)" xlink:href="#ao"/><use transform="matrix(0.05,0,0,0.05,52.95,0)" xlink:href="#bF"/><use transform="matrix(0.05,0,0,0.05,57.95,0)" xlink:href="#aY"/><use transform="matrix(0.05,0,0,0.05,67.95,0)" xlink:href="#ar"/><use transform="matrix(0.05,0,0,0.05,77.95,0)" xlink:href="#aW"/><use transform="matrix(0.05,0,0,0.05,86.95,0)" xlink:href="#am"/><use transform="matrix(0.05,0,0,0.05,91.95,0)" xlink:href="#bk"/><use transform="matrix(0.05,0,0,0.05,95.9,0)" xlink:href="#aX"/><use transform="matrix(0.05,0,0,0.05,105.9,0)" xlink:href="#ar"/></g><path d="M177-190C167-65 218 103 67 71c-23-6-38-20-44-43l32-5c15 47 100 32 89-28v-30C133-14 115 1 83 1 29 1 15-40 15-95c0-56 16-97 71-98 29-1 48 16 59 35 1-10 0-23 2-32h30zM94-22c36 0 50-32 50-73 0-42-14-75-50-75-39 0-46 34-46 75s6 73 46 73" id="bG"/><path d="M33 0v-38h34V0H33" id="bH"/><g id="y"><use transform="matrix(0.05,0,0,0.05,0,0)" xlink:href="#bv"/><use transform="matrix(0.05,0,0,0.05,10,0)" xlink:href="#bG"/><use transform="matrix(0.05,0,0,0.05,20,0)" xlink:href="#ao"/><use transform="matrix(0.05,0,0,0.05,30,0)" xlink:href="#bv"/><use transform="matrix(0.05,0,0,0.05,40,0)" xlink:href="#bi"/><use transform="matrix(0.05,0,0,0.05,45.95,0)" xlink:href="#aX"/><use transform="matrix(0.05,0,0,0.05,55.95,0)" xlink:href="#aW"/><use transform="matrix(0.05,0,0,0.05,64.95,0)" xlink:href="#bH"/><use transform="matrix(0.05,0,0,0.05,69.95,0)" xlink:href="#aX"/><use transform="matrix(0.05,0,0,0.05,79.95,0)" xlink:href="#bk"/><use transform="matrix(0.05,0,0,0.05,83.9,0)" xlink:href="#bt"/></g><g id="z"><use transform="matrix(0.05,0,0,0.05,0,0)" xlink:href="#aX"/><use transform="matrix(0.05,0,0,0.05,10,0)" xlink:href="#bv"/></g><path d="M87 75C49 33 22-17 22-94c0-76 28-126 65-167h31c-38 41-64 92-64 168S80 34 118 75H87" id="bI"/><path d="M27 0v-27h64v-190l-56 39v-29l58-41h29v221h61V0H27" id="bJ"/><path d="M33-261c38 41 65 92 65 168S71 34 33 75H2C39 34 66-17 66-93S39-220 2-261h31" id="bK"/><g id="A"><use transform="matrix(0.05,0,0,0.05,0,0)" xlink:href="#bd"/><use transform="matrix(0.05,0,0,0.05,12.950000000000001,0)" xlink:href="#be"/><use transform="matrix(0.05,0,0,0.05,25.900000000000002,0)" xlink:href="#bb"/><use transform="matrix(0.05,0,0,0.05,37.900000000000006,0)" xlink:href="#bc"/><use transform="matrix(0.05,0,0,0.05,50.85000000000001,0)" xlink:href="#bI"/><use transform="matrix(0.05,0,0,0.05,56.80000000000001,0)" xlink:href="#bJ"/><use transform="matrix(0.05,0,0,0.05,66.80000000000001,0)" xlink:href="#bK"/></g><path d="M144 0l-44-69L55 0H2l70-98-66-92h53l41 62 40-62h54l-67 91 71 99h-54" id="bL"/><g id="B"><use transform="matrix(0.05,0,0,0.05,0,0)" xlink:href="#aw"/><use transform="matrix(0.05,0,0,0.05,10,0)" xlink:href="#bL"/><use transform="matrix(0.05,0,0,0.05,20,0)" xlink:href="#aw"/><use transform="matrix(0.05,0,0,0.05,30,0)" xlink:href="#aL"/><use transform="matrix(0.05,0,0,0.05,40,0)" xlink:href="#br"/><use transform="matrix(0.05,0,0,0.05,50.95,0)" xlink:href="#az"/><use transform="matrix(0.05,0,0,0.05,56.900000000000006,0)" xlink:href="#aw"/><use transform="matrix(0.05,0,0,0.05,66.9,0)" xlink:href="#aA"/><use transform="matrix(0.05,0,0,0.05,76.9,0)" xlink:href="#aB"/><use transform="matrix(0.05,0,0,0.05,86.9,0)" xlink:href="#aK"/><use transform="matrix(0.05,0,0,0.05,96.9,0)" xlink:href="#bC"/><use transform="matrix(0.05,0,0,0.05,106.9,0)" xlink:href="#ay"/><use transform="matrix(0.05,0,0,0.05,117.85000000000001,0)" xlink:href="#aL"/><use transform="matrix(0.05,0,0,0.05,127.85000000000001,0)" xlink:href="#aM"/><use transform="matrix(0.05,0,0,0.05,138.8,0)" xlink:href="#bn"/><use transform="matrix(0.05,0,0,0.05,145.8,0)" xlink:href="#bm"/><use transform="matrix(0.05,0,0,0.05,156.75,0)" xlink:href="#ay"/><use transform="matrix(0.05,0,0,0.05,167.7,0)" xlink:href="#bm"/><use transform="matrix(0.05,0,0,0.05,178.64999999999998,0)" xlink:href="#br"/><use transform="matrix(0.05,0,0,0.05,189.59999999999997,0)" xlink:href="#aK"/><use transform="matrix(0.05,0,0,0.05,199.59999999999997,0)" xlink:href="#aD"/><use transform="matrix(0.05,0,0,0.05,204.59999999999997,0)" xlink:href="#bC"/></g><path d="M182-130c37 4 62 22 62 59C244 23 116-4 24 0v-248c84 5 203-23 205 63 0 31-19 50-47 55zM76-148c40-3 101 13 101-30 0-44-60-28-101-31v61zm0 110c48-3 116 14 116-37 0-48-69-32-116-35v72" id="bM"/><path d="M140-251c80 0 125 45 125 126S219 4 139 4C58 4 15-44 15-125s44-126 125-126zm-1 214c52 0 73-35 73-88 0-50-21-86-72-86-52 0-73 35-73 86s22 88 72 88" id="bN"/><path d="M24 0v-248h52v208h133V0H24" id="bO"/><g id="C"><use transform="matrix(0.05,0,0,0.05,0,0)" xlink:href="#bM"/><use transform="matrix(0.05,0,0,0.05,12.950000000000001,0)" xlink:href="#bN"/><use transform="matrix(0.05,0,0,0.05,26.950000000000003,0)" xlink:href="#bN"/><use transform="matrix(0.05,0,0,0.05,40.95,0)" xlink:href="#bO"/><use transform="matrix(0.05,0,0,0.05,51.900000000000006,0)" xlink:href="#aH"/><use transform="matrix(0.05,0,0,0.05,63.900000000000006,0)" xlink:href="#aP"/><use transform="matrix(0.05,0,0,0.05,76.85000000000001,0)" xlink:href="#aF"/></g><path d="M145-31C134-9 116 4 85 4 32 4 16-35 15-94c0-59 17-99 70-100 32-1 48 14 60 33 0-11-1-24 2-32h30l-1 268h-32zM93-21c41 0 51-33 51-76s-8-73-50-73c-40 0-46 35-46 75s5 74 45 74" id="bP"/><g id="D"><use transform="matrix(0.05,0,0,0.05,0,0)" xlink:href="#am"/><use transform="matrix(0.05,0,0,0.05,5,0)" xlink:href="#an"/><use transform="matrix(0.05,0,0,0.05,15,0)" xlink:href="#ao"/><use transform="matrix(0.05,0,0,0.05,25,0)" xlink:href="#bh"/><use transform="matrix(0.05,0,0,0.05,37.95,0)" xlink:href="#aX"/><use transform="matrix(0.05,0,0,0.05,47.95,0)" xlink:href="#bi"/><use transform="matrix(0.05,0,0,0.05,53.900000000000006,0)" xlink:href="#bj"/><use transform="matrix(0.05,0,0,0.05,62.900000000000006,0)" xlink:href="#ao"/><use transform="matrix(0.05,0,0,0.05,72.9,0)" xlink:href="#bP"/><use transform="matrix(0.05,0,0,0.05,82.9,0)" xlink:href="#aY"/><use transform="matrix(0.05,0,0,0.05,92.9,0)" xlink:href="#ap"/><use transform="matrix(0.05,0,0,0.05,102.9,0)" xlink:href="#aY"/><use transform="matrix(0.05,0,0,0.05,112.9,0)" xlink:href="#ap"/></g><path d="M135-194c53 0 70 44 70 98 0 56-19 98-73 100-31 1-45-17-59-34 3 33 2 69 2 105H25l-1-265h48c2 10 0 23 3 31 11-24 29-35 60-35zM114-30c33 0 39-31 40-66 0-38-9-64-40-64-56 0-55 130 0 130" id="bQ"/><g id="E"><use transform="matrix(0.05,0,0,0.05,0,0)" xlink:href="#bQ"/><use transform="matrix(0.05,0,0,0.05,10.950000000000001,0)" xlink:href="#aB"/><use transform="matrix(0.05,0,0,0.05,20.950000000000003,0)" xlink:href="#bn"/><use transform="matrix(0.05,0,0,0.05,27.950000000000003,0)" xlink:href="#aB"/><use transform="matrix(0.05,0,0,0.05,37.95,0)" xlink:href="#aN"/><use transform="matrix(0.05,0,0,0.05,53.95,0)" xlink:href="#aw"/><use transform="matrix(0.05,0,0,0.05,63.95,0)" xlink:href="#az"/><use transform="matrix(0.05,0,0,0.05,69.9,0)" xlink:href="#aw"/><use transform="matrix(0.05,0,0,0.05,79.9,0)" xlink:href="#bn"/><use transform="matrix(0.05,0,0,0.05,86.9,0)" xlink:href="#aK"/></g><path d="M176-78C186 10 51 31 16-35c-5-9-9-19-11-32l52-8c4 21 12 37 35 38 23 0 32-16 32-40v-130H75v-41h101v170" id="bR"/><path d="M169-182c-1-43-94-46-97-3 18 66 151 10 154 114 3 95-165 93-204 36-6-8-10-19-12-30l50-8c3 46 112 56 116 5-17-69-150-10-154-114-4-87 153-88 188-35 5 8 8 18 10 28" id="bS"/><g id="F"><use transform="matrix(0.05,0,0,0.05,0,0)" xlink:href="#bR"/><use transform="matrix(0.05,0,0,0.05,10,0)" xlink:href="#bS"/><use transform="matrix(0.05,0,0,0.05,22,0)" xlink:href="#bN"/><use transform="matrix(0.05,0,0,0.05,36,0)" xlink:href="#aF"/><use transform="matrix(0.05,0,0,0.05,48.95,0)" xlink:href="#bM"/></g><path d="M88-194c31-1 46 15 58 34l-1-101h50l1 261h-48c-2-10 0-23-3-31C134-8 116 4 84 4 32 4 16-41 15-95c0-56 19-97 73-99zm17 164c33 0 40-30 41-66 1-37-9-64-41-64s-38 30-39 65c0 43 13 65 39 65" id="bT"/><g id="G"><use transform="matrix(0.05,0,0,0.05,0,0)" xlink:href="#br"/><use transform="matrix(0.05,0,0,0.05,10.950000000000001,0)" xlink:href="#bp"/><use transform="matrix(0.05,0,0,0.05,15.950000000000001,0)" xlink:href="#bT"/></g><g id="H"><use transform="matrix(0.05,0,0,0.05,0,0)" xlink:href="#bn"/><use transform="matrix(0.05,0,0,0.05,7,0)" xlink:href="#aw"/><use transform="matrix(0.05,0,0,0.05,17,0)" xlink:href="#aL"/><use transform="matrix(0.05,0,0,0.05,27,0)" xlink:href="#bm"/><use transform="matrix(0.05,0,0,0.05,37.95,0)" xlink:href="#bn"/><use transform="matrix(0.05,0,0,0.05,44.95,0)" xlink:href="#bT"/><use transform="matrix(0.05,0,0,0.05,55.900000000000006,0)" xlink:href="#aw"/><use transform="matrix(0.05,0,0,0.05,65.9,0)" xlink:href="#bT"/></g><path d="M230 0l2-204L168 0h-37L68-204 70 0H24v-248h70l56 185 57-185h69V0h-46" id="bU"/><g id="I"><use transform="matrix(0.05,0,0,0.05,0,0)" xlink:href="#aG"/><use transform="matrix(0.05,0,0,0.05,10.950000000000001,0)" xlink:href="#aE"/><use transform="matrix(0.05,0,0,0.05,15.950000000000001,0)" xlink:href="#bU"/><use transform="matrix(0.05,0,0,0.05,30.900000000000002,0)" xlink:href="#aH"/><use transform="matrix(0.05,0,0,0.05,42.900000000000006,0)" xlink:href="#bS"/><use transform="matrix(0.05,0,0,0.05,54.900000000000006,0)" xlink:href="#aG"/><use transform="matrix(0.05,0,0,0.05,64.5,0)" xlink:href="#aP"/><use transform="matrix(0.05,0,0,0.05,77.45,0)" xlink:href="#bU"/><use transform="matrix(0.05,0,0,0.05,92.4,0)" xlink:href="#au"/></g><g id="J"><use transform="matrix(0.05,0,0,0.05,0,0)" xlink:href="#aB"/><use transform="matrix(0.05,0,0,0.05,10,0)" xlink:href="#aL"/><use transform="matrix(0.05,0,0,0.05,20,0)" xlink:href="#az"/><use transform="matrix(0.05,0,0,0.05,25.950000000000003,0)" xlink:href="#bp"/><use transform="matrix(0.05,0,0,0.05,30.950000000000003,0)" xlink:href="#bm"/><use transform="matrix(0.05,0,0,0.05,41.9,0)" xlink:href="#ay"/></g><path d="M141 0L90-78 38 0H4l68-98-65-92h35l48 74 47-74h35l-64 92 68 98h-35" id="bV"/><path d="M179-190L93 31C79 59 56 82 12 73V49c39 6 53-20 64-50L1-190h34L92-34l54-156h33" id="bW"/><g id="K"><use transform="matrix(0.05,0,0,0.05,0,0)" xlink:href="#ap"/><use transform="matrix(0.05,0,0,0.05,10,0)" xlink:href="#bV"/><use transform="matrix(0.05,0,0,0.05,19,0)" xlink:href="#ap"/><use transform="matrix(0.05,0,0,0.05,29,0)" xlink:href="#aW"/><use transform="matrix(0.05,0,0,0.05,38,0)" xlink:href="#aY"/><use transform="matrix(0.05,0,0,0.05,48,0)" xlink:href="#am"/><use transform="matrix(0.05,0,0,0.05,53,0)" xlink:href="#ap"/><use transform="matrix(0.05,0,0,0.05,63,0)" xlink:href="#ao"/><use transform="matrix(0.05,0,0,0.05,73,0)" xlink:href="#as"/><use transform="matrix(0.05,0,0,0.05,83,0)" xlink:href="#bu"/><use transform="matrix(0.05,0,0,0.05,92,0)" xlink:href="#bW"/><use transform="matrix(0.05,0,0,0.05,101,0)" xlink:href="#ar"/><use transform="matrix(0.05,0,0,0.05,111,0)" xlink:href="#aW"/><use transform="matrix(0.05,0,0,0.05,120,0)" xlink:href="#bE"/><use transform="matrix(0.05,0,0,0.05,130,0)" xlink:href="#bi"/><use transform="matrix(0.05,0,0,0.05,135.95,0)" xlink:href="#aX"/><use transform="matrix(0.05,0,0,0.05,145.95,0)" xlink:href="#ar"/><use transform="matrix(0.05,0,0,0.05,155.95,0)" xlink:href="#aX"/><use transform="matrix(0.05,0,0,0.05,165.95,0)" xlink:href="#aY"/><use transform="matrix(0.05,0,0,0.05,175.95,0)" xlink:href="#bu"/><use transform="matrix(0.05,0,0,0.05,184.95,0)" xlink:href="#at"/><use transform="matrix(0.05,0,0,0.05,188.89999999999998,0)" xlink:href="#bW"/></g><path d="M30 0v-248h33v221h125V0H30" id="bX"/><path d="M30 0v-248h187v28H63v79h144v27H63v87h162V0H30" id="bY"/><g id="L"><use transform="matrix(0.05,0,0,0.05,0,0)" xlink:href="#bA"/><use transform="matrix(0.05,0,0,0.05,12,0)" xlink:href="#by"/><use transform="matrix(0.05,0,0,0.05,26,0)" xlink:href="#by"/><use transform="matrix(0.05,0,0,0.05,40,0)" xlink:href="#bX"/><use transform="matrix(0.05,0,0,0.05,50,0)" xlink:href="#bY"/><use transform="matrix(0.05,0,0,0.05,62,0)" xlink:href="#bb"/><use transform="matrix(0.05,0,0,0.05,74,0)" xlink:href="#bz"/></g><g id="M"><use transform="matrix(0.05,0,0,0.05,0,0)" xlink:href="#am"/><use transform="matrix(0.05,0,0,0.05,5,0)" xlink:href="#an"/><use transform="matrix(0.05,0,0,0.05,15,0)" xlink:href="#ao"/><use transform="matrix(0.05,0,0,0.05,25,0)" xlink:href="#ap"/><use transform="matrix(0.05,0,0,0.05,35,0)" xlink:href="#aq"/><use transform="matrix(0.05,0,0,0.05,44,0)" xlink:href="#ap"/><use transform="matrix(0.05,0,0,0.05,54,0)" xlink:href="#ar"/><use transform="matrix(0.05,0,0,0.05,64,0)" xlink:href="#am"/><use transform="matrix(0.05,0,0,0.05,69,0)" xlink:href="#ao"/><use transform="matrix(0.05,0,0,0.05,79,0)" xlink:href="#bP"/><use transform="matrix(0.05,0,0,0.05,89,0)" xlink:href="#aY"/><use transform="matrix(0.05,0,0,0.05,99,0)" xlink:href="#ap"/><use transform="matrix(0.05,0,0,0.05,109,0)" xlink:href="#aY"/><use transform="matrix(0.05,0,0,0.05,119,0)" xlink:href="#ap"/></g><g id="N"><use transform="matrix(0.05,0,0,0.05,0,0)" xlink:href="#bl"/><use transform="matrix(0.05,0,0,0.05,14,0)" xlink:href="#bm"/><use transform="matrix(0.05,0,0,0.05,24.950000000000003,0)" xlink:href="#bn"/><use transform="matrix(0.05,0,0,0.05,31.950000000000003,0)" xlink:href="#bo"/><use transform="matrix(0.05,0,0,0.05,41.95,0)" xlink:href="#aA"/><use transform="matrix(0.05,0,0,0.05,51.95,0)" xlink:href="#bp"/><use transform="matrix(0.05,0,0,0.05,56.95,0)" xlink:href="#az"/><use transform="matrix(0.05,0,0,0.05,62.900000000000006,0)" xlink:href="#aw"/><use transform="matrix(0.05,0,0,0.05,72.9,0)" xlink:href="#aN"/><use transform="matrix(0.05,0,0,0.05,88.9,0)" xlink:href="#aA"/><use transform="matrix(0.05,0,0,0.05,98.9,0)" xlink:href="#aw"/><use transform="matrix(0.05,0,0,0.05,108.9,0)" xlink:href="#ax"/><use transform="matrix(0.05,0,0,0.05,118.9,0)" xlink:href="#aw"/><use transform="matrix(0.05,0,0,0.05,128.9,0)" xlink:href="#ay"/><use transform="matrix(0.05,0,0,0.05,139.85,0)" xlink:href="#az"/><use transform="matrix(0.05,0,0,0.05,145.79999999999998,0)" xlink:href="#aA"/><use transform="matrix(0.05,0,0,0.05,155.79999999999998,0)" xlink:href="#az"/><use transform="matrix(0.05,0,0,0.05,161.74999999999997,0)" xlink:href="#aB"/><use transform="matrix(0.05,0,0,0.05,171.74999999999997,0)" xlink:href="#aC"/><use transform="matrix(0.05,0,0,0.05,182.69999999999996,0)" xlink:href="#aD"/><use transform="matrix(0.05,0,0,0.05,187.69999999999996,0)" xlink:href="#aw"/></g><g id="O"><use transform="matrix(0.05,0,0,0.05,0,0)" xlink:href="#bQ"/><use transform="matrix(0.05,0,0,0.05,10.950000000000001,0)" xlink:href="#bo"/><use transform="matrix(0.05,0,0,0.05,20.950000000000003,0)" xlink:href="#aA"/><use transform="matrix(0.05,0,0,0.05,30.950000000000003,0)" xlink:href="#ax"/><use transform="matrix(0.05,0,0,0.05,40.95,0)" xlink:href="#aB"/><use transform="matrix(0.05,0,0,0.05,50.95,0)" xlink:href="#aD"/><use transform="matrix(0.05,0,0,0.05,55.95,0)" xlink:href="#br"/><use transform="matrix(0.05,0,0,0.05,66.9,0)" xlink:href="#aw"/></g><g id="P"><use transform="matrix(0.05,0,0,0.05,0,0)" xlink:href="#bm"/><use transform="matrix(0.05,0,0,0.05,10.950000000000001,0)" xlink:href="#bQ"/></g><path d="M23 0v-37h61v-169l-59 37v-38l62-41h46v211h57V0H23" id="bZ"/><g id="Q"><use transform="matrix(0.05,0,0,0.05,0,0)" xlink:href="#aQ"/><use transform="matrix(0.05,0,0,0.05,12.950000000000001,0)" xlink:href="#aR"/><use transform="matrix(0.05,0,0,0.05,25.900000000000002,0)" xlink:href="#aP"/><use transform="matrix(0.05,0,0,0.05,38.85,0)" xlink:href="#aJ"/><use transform="matrix(0.05,0,0,0.05,51.800000000000004,0)" xlink:href="#aS"/><use transform="matrix(0.05,0,0,0.05,57.75,0)" xlink:href="#bZ"/><use transform="matrix(0.05,0,0,0.05,67.75,0)" xlink:href="#aV"/></g><g id="R"><use transform="matrix(0.05,0,0,0.05,0,0)" xlink:href="#am"/><use transform="matrix(0.05,0,0,0.05,5,0)" xlink:href="#bi"/><use transform="matrix(0.05,0,0,0.05,10.95,0)" xlink:href="#as"/><use transform="matrix(0.05,0,0,0.05,20.95,0)" xlink:href="#ar"/><use transform="matrix(0.05,0,0,0.05,30.950000000000003,0)" xlink:href="#bu"/><use transform="matrix(0.05,0,0,0.05,39.95,0)" xlink:href="#as"/><use transform="matrix(0.05,0,0,0.05,49.95,0)" xlink:href="#aW"/><use transform="matrix(0.05,0,0,0.05,58.95,0)" xlink:href="#am"/><use transform="matrix(0.05,0,0,0.05,63.95,0)" xlink:href="#bk"/><use transform="matrix(0.05,0,0,0.05,67.9,0)" xlink:href="#aX"/><use transform="matrix(0.05,0,0,0.05,77.9,0)" xlink:href="#ar"/><use transform="matrix(0.05,0,0,0.05,87.9,0)" xlink:href="#ao"/><use transform="matrix(0.05,0,0,0.05,97.9,0)" xlink:href="#at"/><use transform="matrix(0.05,0,0,0.05,101.85000000000001,0)" xlink:href="#as"/><use transform="matrix(0.05,0,0,0.05,111.85000000000001,0)" xlink:href="#an"/><use transform="matrix(0.05,0,0,0.05,121.85000000000001,0)" xlink:href="#ap"/><use transform="matrix(0.05,0,0,0.05,131.85000000000002,0)" xlink:href="#at"/></g><g id="S"><use transform="matrix(0.05,0,0,0.05,0,0)" xlink:href="#ba"/><use transform="matrix(0.05,0,0,0.05,10.65,0)" xlink:href="#bb"/><use transform="matrix(0.05,0,0,0.05,22.65,0)" xlink:href="#bc"/><use transform="matrix(0.05,0,0,0.05,35.6,0)" xlink:href="#bd"/><use transform="matrix(0.05,0,0,0.05,48.550000000000004,0)" xlink:href="#be"/><use transform="matrix(0.05,0,0,0.05,61.5,0)" xlink:href="#bb"/><use transform="matrix(0.05,0,0,0.05,73.5,0)" xlink:href="#bc"/></g><g id="T"><use transform="matrix(0.05,0,0,0.05,0,0)" xlink:href="#bh"/><use transform="matrix(0.05,0,0,0.05,12.950000000000001,0)" xlink:href="#aX"/><use transform="matrix(0.05,0,0,0.05,22.950000000000003,0)" xlink:href="#bi"/><use transform="matrix(0.05,0,0,0.05,28.900000000000002,0)" xlink:href="#bj"/><use transform="matrix(0.05,0,0,0.05,37.900000000000006,0)" xlink:href="#ao"/><use transform="matrix(0.05,0,0,0.05,47.900000000000006,0)" xlink:href="#bk"/><use transform="matrix(0.05,0,0,0.05,51.85,0)" xlink:href="#am"/><use transform="matrix(0.05,0,0,0.05,56.85,0)" xlink:href="#ap"/><use transform="matrix(0.05,0,0,0.05,66.85000000000001,0)" xlink:href="#aZ"/><use transform="matrix(0.05,0,0,0.05,81.80000000000001,0)" xlink:href="#ao"/><use transform="matrix(0.05,0,0,0.05,91.80000000000001,0)" xlink:href="#bP"/><use transform="matrix(0.05,0,0,0.05,101.80000000000001,0)" xlink:href="#aY"/><use transform="matrix(0.05,0,0,0.05,111.80000000000001,0)" xlink:href="#ap"/><use transform="matrix(0.05,0,0,0.05,121.80000000000001,0)" xlink:href="#bi"/><use transform="matrix(0.05,0,0,0.05,127.75,0)" xlink:href="#bW"/></g><path d="M127-220V0H93v-220H8v-28h204v28h-85" id="ca"/><path d="M195 0l-74-108L45 0H8l94-129-87-119h37l69 98 67-98h37l-84 118L233 0h-38" id="cb"/><g id="U"><use transform="matrix(0.05,0,0,0.05,0,0)" xlink:href="#ca"/><use transform="matrix(0.05,0,0,0.05,10.950000000000001,0)" xlink:href="#bY"/><use transform="matrix(0.05,0,0,0.05,22.950000000000003,0)" xlink:href="#cb"/><use transform="matrix(0.05,0,0,0.05,34.95,0)" xlink:href="#ca"/></g><g id="V"><use transform="matrix(0.05,0,0,0.05,0,0)" xlink:href="#as"/><use transform="matrix(0.05,0,0,0.05,10,0)" xlink:href="#aW"/><use transform="matrix(0.05,0,0,0.05,19,0)" xlink:href="#am"/><use transform="matrix(0.05,0,0,0.05,24,0)" xlink:href="#bk"/><use transform="matrix(0.05,0,0,0.05,27.950000000000003,0)" xlink:href="#aX"/><use transform="matrix(0.05,0,0,0.05,37.95,0)" xlink:href="#ar"/></g><path d="M33 0v-248h34V0H33" id="cc"/><path d="M143 4C61 4 22-44 18-125c-5-107 100-154 193-111 17 8 29 25 37 43l-32 9c-13-25-37-40-76-40-61 0-88 39-88 99 0 61 29 100 91 101 35 0 62-11 79-27v-45h-74v-28h105v86C228-13 192 4 143 4" id="cd"/><g id="W"><use transform="matrix(0.05,0,0,0.05,0,0)" xlink:href="#cc"/><use transform="matrix(0.05,0,0,0.05,5,0)" xlink:href="#bz"/><use transform="matrix(0.05,0,0,0.05,17.950000000000003,0)" xlink:href="#ca"/><use transform="matrix(0.05,0,0,0.05,28.900000000000006,0)" xlink:href="#bY"/><use transform="matrix(0.05,0,0,0.05,40.900000000000006,0)" xlink:href="#cd"/><use transform="matrix(0.05,0,0,0.05,54.900000000000006,0)" xlink:href="#bY"/><use transform="matrix(0.05,0,0,0.05,66.9,0)" xlink:href="#bc"/></g><g id="X"><use transform="matrix(0.05,0,0,0.05,0,0)" xlink:href="#am"/><use transform="matrix(0.05,0,0,0.05,5,0)" xlink:href="#an"/><use transform="matrix(0.05,0,0,0.05,15,0)" xlink:href="#ao"/><use transform="matrix(0.05,0,0,0.05,25,0)" xlink:href="#bu"/><use transform="matrix(0.05,0,0,0.05,34,0)" xlink:href="#ap"/><use transform="matrix(0.05,0,0,0.05,44,0)" xlink:href="#am"/><use transform="matrix(0.05,0,0,0.05,49,0)" xlink:href="#am"/><use transform="matrix(0.05,0,0,0.05,54,0)" xlink:href="#bk"/><use transform="matrix(0.05,0,0,0.05,57.95,0)" xlink:href="#ar"/><use transform="matrix(0.05,0,0,0.05,67.95,0)" xlink:href="#bG"/></g><path d="M30-248c87 1 191-15 191 75 0 78-77 80-158 76V0H30v-248zm33 125c57 0 124 11 124-50 0-59-68-47-124-48v98" id="ce"/><path d="M194 0L95-120 63-95V0H30v-248h33v124l119-124h40L117-140 236 0h-42" id="cf"/><g id="Y"><use transform="matrix(0.05,0,0,0.05,0,0)" xlink:href="#ce"/><use transform="matrix(0.05,0,0,0.05,12,0)" xlink:href="#cf"/></g><g id="Z"><use transform="matrix(0.05,0,0,0.05,0,0)" xlink:href="#bu"/><use transform="matrix(0.05,0,0,0.05,9,0)" xlink:href="#ap"/><use transform="matrix(0.05,0,0,0.05,19,0)" xlink:href="#am"/><use transform="matrix(0.05,0,0,0.05,24,0)" xlink:href="#am"/><use transform="matrix(0.05,0,0,0.05,29,0)" xlink:href="#bk"/><use transform="matrix(0.05,0,0,0.05,32.95,0)" xlink:href="#ar"/><use transform="matrix(0.05,0,0,0.05,42.95,0)" xlink:href="#bG"/></g><g id="aa"><use transform="matrix(0.05,0,0,0.05,0,0)" xlink:href="#cc"/><use transform="matrix(0.05,0,0,0.05,5,0)" xlink:href="#bz"/><use transform="matrix(0.05,0,0,0.05,17.950000000000003,0)" xlink:href="#ca"/><use transform="matrix(0.05,0,0,0.05,28.900000000000006,0)" xlink:href="#bY"/><use transform="matrix(0.05,0,0,0.05,40.900000000000006,0)" xlink:href="#cd"/><use transform="matrix(0.05,0,0,0.05,54.900000000000006,0)" xlink:href="#bY"/><use transform="matrix(0.05,0,0,0.05,66.9,0)" xlink:href="#bc"/></g><g id="ab"><use transform="matrix(0.05,0,0,0.05,0,0)" xlink:href="#bj"/><use transform="matrix(0.05,0,0,0.05,9,0)" xlink:href="#ap"/><use transform="matrix(0.05,0,0,0.05,19,0)" xlink:href="#bW"/></g><g id="ac"><use transform="matrix(0.05,0,0,0.05,0,0)" xlink:href="#ba"/><use transform="matrix(0.05,0,0,0.05,10.65,0)" xlink:href="#bb"/><use transform="matrix(0.05,0,0,0.05,22.65,0)" xlink:href="#bc"/><use transform="matrix(0.05,0,0,0.05,35.6,0)" xlink:href="#bd"/><use transform="matrix(0.05,0,0,0.05,48.550000000000004,0)" xlink:href="#be"/><use transform="matrix(0.05,0,0,0.05,61.5,0)" xlink:href="#bb"/><use transform="matrix(0.05,0,0,0.05,73.5,0)" xlink:href="#bc"/></g><g id="ad"><use transform="matrix(0.05,0,0,0.05,0,0)" xlink:href="#aq"/><use transform="matrix(0.05,0,0,0.05,9,0)" xlink:href="#as"/><use transform="matrix(0.05,0,0,0.05,19,0)" xlink:href="#at"/><use transform="matrix(0.05,0,0,0.05,22.95,0)" xlink:href="#aY"/><use transform="matrix(0.05,0,0,0.05,32.95,0)" xlink:href="#ap"/></g><g id="ae"><use transform="matrix(0.05,0,0,0.05,0,0)" xlink:href="#am"/><use transform="matrix(0.05,0,0,0.05,5,0)" xlink:href="#an"/><use transform="matrix(0.05,0,0,0.05,15,0)" xlink:href="#ao"/><use transform="matrix(0.05,0,0,0.05,25,0)" xlink:href="#as"/><use transform="matrix(0.05,0,0,0.05,35,0)" xlink:href="#aW"/><use transform="matrix(0.05,0,0,0.05,44,0)" xlink:href="#am"/><use transform="matrix(0.05,0,0,0.05,49,0)" xlink:href="#bk"/><use transform="matrix(0.05,0,0,0.05,52.95,0)" xlink:href="#aX"/><use transform="matrix(0.05,0,0,0.05,62.95,0)" xlink:href="#ar"/></g><g id="af"><use transform="matrix(0.05,0,0,0.05,0,0)" xlink:href="#at"/><use transform="matrix(0.05,0,0,0.05,3.95,0)" xlink:href="#as"/><use transform="matrix(0.05,0,0,0.05,13.949999999999998,0)" xlink:href="#an"/><use transform="matrix(0.05,0,0,0.05,23.95,0)" xlink:href="#ap"/><use transform="matrix(0.05,0,0,0.05,33.95,0)" xlink:href="#at"/></g><g id="ag"><use transform="matrix(0.05,0,0,0.05,0,0)" xlink:href="#bP"/><use transform="matrix(0.05,0,0,0.05,10,0)" xlink:href="#aY"/><use transform="matrix(0.05,0,0,0.05,20,0)" xlink:href="#ap"/><use transform="matrix(0.05,0,0,0.05,30,0)" xlink:href="#bi"/><use transform="matrix(0.05,0,0,0.05,35.95,0)" xlink:href="#bW"/></g><g id="ah"><use transform="matrix(0.05,0,0,0.05,0,0)" xlink:href="#aY"/><use transform="matrix(0.05,0,0,0.05,10,0)" xlink:href="#bi"/><use transform="matrix(0.05,0,0,0.05,15.949999999999998,0)" xlink:href="#bk"/></g><g id="ai"><use transform="matrix(0.05,0,0,0.05,0,0)" xlink:href="#bu"/><use transform="matrix(0.05,0,0,0.05,9,0)" xlink:href="#am"/><use transform="matrix(0.05,0,0,0.05,14,0)" xlink:href="#as"/><use transform="matrix(0.05,0,0,0.05,24,0)" xlink:href="#am"/><use transform="matrix(0.05,0,0,0.05,29,0)" xlink:href="#bk"/><use transform="matrix(0.05,0,0,0.05,32.95,0)" xlink:href="#aW"/><use transform="matrix(0.05,0,0,0.05,41.95,0)" xlink:href="#ao"/><use transform="matrix(0.05,0,0,0.05,51.95,0)" xlink:href="#bv"/><use transform="matrix(0.05,0,0,0.05,61.95,0)" xlink:href="#as"/><use transform="matrix(0.05,0,0,0.05,71.95,0)" xlink:href="#bi"/><use transform="matrix(0.05,0,0,0.05,77.9,0)" xlink:href="#as"/><use transform="matrix(0.05,0,0,0.05,87.9,0)" xlink:href="#aZ"/><use transform="matrix(0.05,0,0,0.05,102.85000000000001,0)" xlink:href="#ap"/><use transform="matrix(0.05,0,0,0.05,112.85000000000001,0)" xlink:href="#am"/><use transform="matrix(0.05,0,0,0.05,117.85000000000001,0)" xlink:href="#ap"/><use transform="matrix(0.05,0,0,0.05,127.85000000000001,0)" xlink:href="#bi"/><use transform="matrix(0.05,0,0,0.05,133.8,0)" xlink:href="#bu"/></g><g id="aj"><use transform="matrix(0.05,0,0,0.05,0,0)" xlink:href="#am"/><use transform="matrix(0.05,0,0,0.05,5,0)" xlink:href="#an"/><use transform="matrix(0.05,0,0,0.05,15,0)" xlink:href="#ao"/><use transform="matrix(0.05,0,0,0.05,25,0)" xlink:href="#ap"/><use transform="matrix(0.05,0,0,0.05,35,0)" xlink:href="#aq"/><use transform="matrix(0.05,0,0,0.05,44,0)" xlink:href="#ap"/><use transform="matrix(0.05,0,0,0.05,54,0)" xlink:href="#ar"/><use transform="matrix(0.05,0,0,0.05,64,0)" xlink:href="#am"/><use transform="matrix(0.05,0,0,0.05,69,0)" xlink:href="#ao"/><use transform="matrix(0.05,0,0,0.05,79,0)" xlink:href="#am"/><use transform="matrix(0.05,0,0,0.05,84,0)" xlink:href="#as"/><use transform="matrix(0.05,0,0,0.05,94,0)" xlink:href="#an"/><use transform="matrix(0.05,0,0,0.05,104,0)" xlink:href="#at"/><use transform="matrix(0.05,0,0,0.05,107.95,0)" xlink:href="#ap"/><use transform="matrix(0.05,0,0,0.05,117.95,0)" xlink:href="#ao"/><use transform="matrix(0.05,0,0,0.05,127.95,0)" xlink:href="#bh"/><use transform="matrix(0.05,0,0,0.05,140.9,0)" xlink:href="#aX"/><use transform="matrix(0.05,0,0,0.05,150.9,0)" xlink:href="#bi"/><use transform="matrix(0.05,0,0,0.05,156.85,0)" xlink:href="#bj"/><use transform="matrix(0.05,0,0,0.05,165.85,0)" xlink:href="#ao"/><use transform="matrix(0.05,0,0,0.05,175.85,0)" xlink:href="#bk"/><use transform="matrix(0.05,0,0,0.05,179.79999999999998,0)" xlink:href="#am"/><use transform="matrix(0.05,0,0,0.05,184.79999999999998,0)" xlink:href="#ap"/><use transform="matrix(0.05,0,0,0.05,194.79999999999998,0)" xlink:href="#aZ"/><use transform="matrix(0.05,0,0,0.05,209.74999999999997,0)" xlink:href="#ao"/><use transform="matrix(0.05,0,0,0.05,219.74999999999997,0)" xlink:href="#bk"/><use transform="matrix(0.05,0,0,0.05,223.69999999999996,0)" xlink:href="#ar"/><use transform="matrix(0.05,0,0,0.05,233.69999999999996,0)" xlink:href="#bu"/><use transform="matrix(0.05,0,0,0.05,242.69999999999996,0)" xlink:href="#am"/><use transform="matrix(0.05,0,0,0.05,247.69999999999996,0)" xlink:href="#as"/><use transform="matrix(0.05,0,0,0.05,257.69999999999993,0)" xlink:href="#ar"/><use transform="matrix(0.05,0,0,0.05,267.69999999999993,0)" xlink:href="#aW"/><use transform="matrix(0.05,0,0,0.05,276.69999999999993,0)" xlink:href="#ap"/></g><g id="ak"><use transform="matrix(0.05,0,0,0.05,0,0)" xlink:href="#aw"/><use transform="matrix(0.05,0,0,0.05,10,0)" xlink:href="#ax"/><use transform="matrix(0.05,0,0,0.05,20,0)" xlink:href="#aw"/><use transform="matrix(0.05,0,0,0.05,30,0)" xlink:href="#ay"/><use transform="matrix(0.05,0,0,0.05,40.95,0)" xlink:href="#az"/><use transform="matrix(0.05,0,0,0.05,46.900000000000006,0)" xlink:href="#aA"/><use transform="matrix(0.05,0,0,0.05,56.900000000000006,0)" xlink:href="#az"/><use transform="matrix(0.05,0,0,0.05,62.85,0)" xlink:href="#aB"/><use transform="matrix(0.05,0,0,0.05,72.85000000000001,0)" xlink:href="#aC"/><use transform="matrix(0.05,0,0,0.05,83.80000000000001,0)" xlink:href="#aD"/><use transform="matrix(0.05,0,0,0.05,88.80000000000001,0)" xlink:href="#aw"/><use transform="matrix(0.05,0,0,0.05,98.80000000000001,0)" xlink:href="#aA"/><use transform="matrix(0.05,0,0,0.05,108.80000000000001,0)" xlink:href="#bl"/><use transform="matrix(0.05,0,0,0.05,122.80000000000001,0)" xlink:href="#bm"/><use transform="matrix(0.05,0,0,0.05,133.75,0)" xlink:href="#bn"/><use transform="matrix(0.05,0,0,0.05,140.75,0)" xlink:href="#bo"/><use transform="matrix(0.05,0,0,0.05,150.75,0)" xlink:href="#aA"/><use transform="matrix(0.05,0,0,0.05,160.75,0)" xlink:href="#bp"/><use transform="matrix(0.05,0,0,0.05,165.75,0)" xlink:href="#az"/><use transform="matrix(0.05,0,0,0.05,171.7,0)" xlink:href="#aw"/><use transform="matrix(0.05,0,0,0.05,181.7,0)" xlink:href="#aN"/><use transform="matrix(0.05,0,0,0.05,197.7,0)" xlink:href="#aA"/><use transform="matrix(0.05,0,0,0.05,207.69999999999996,0)" xlink:href="#bp"/><use transform="matrix(0.05,0,0,0.05,212.69999999999996,0)" xlink:href="#ay"/><use transform="matrix(0.05,0,0,0.05,223.64999999999998,0)" xlink:href="#aK"/><use transform="matrix(0.05,0,0,0.05,233.64999999999998,0)" xlink:href="#az"/><use transform="matrix(0.05,0,0,0.05,239.59999999999997,0)" xlink:href="#aB"/><use transform="matrix(0.05,0,0,0.05,249.59999999999997,0)" xlink:href="#ay"/><use transform="matrix(0.05,0,0,0.05,260.54999999999995,0)" xlink:href="#aL"/><use transform="matrix(0.05,0,0,0.05,270.54999999999995,0)" xlink:href="#aw"/></g><g id="al"><use transform="matrix(0.05,0,0,0.05,0,0)" xlink:href="#az"/><use transform="matrix(0.05,0,0,0.05,5.95,0)" xlink:href="#aB"/><use transform="matrix(0.05,0,0,0.05,15.949999999999998,0)" xlink:href="#bn"/><use transform="matrix(0.05,0,0,0.05,22.95,0)" xlink:href="#bs"/><use transform="matrix(0.05,0,0,0.05,33.9,0)" xlink:href="#aw"/><use transform="matrix(0.05,0,0,0.05,43.9,0)" xlink:href="#az"/><use transform="matrix(0.05,0,0,0.05,49.85,0)" xlink:href="#aA"/><use transform="matrix(0.05,0,0,0.05,59.85,0)" xlink:href="#bQ"/><use transform="matrix(0.05,0,0,0.05,70.8,0)" xlink:href="#bo"/></g></defs></g></svg>